<svg xmlns="http://www.w3.org/2000/svg" xmlns:xlink="http://www.w3.org/1999/xlink" xmlns:inkscape="http://www.inkscape.org/namespaces/inkscape" version="1.1" width="783.03976" height="830.1292" viewBox="0 0 783.03976 830.1292">
<g inkscape:groupmode="layer" inkscape:label="Layer 1">
<path transform="matrix(1,0,0,-1,0,830.1292)" d="M440.16075 778.51419H411.44108V807.033C411.44108 809.3761 409.9855 810.5476 407.07444 810.5476 404.02738 810.5476 402.5038 809.3761 402.5038 807.033V707.1167C402.5038 704.77359 404.02738 703.60208 407.07444 703.60208 409.9855 703.60208 411.44108 704.77359 411.44108 707.1167V742.6648H440.16075V706.1125C440.16075 699.28408 436.81346 693.8112 430.1189 689.6941 423.42433 685.5769 415.85948 683.5184 407.42433 683.5184 383.05613 683.5184 370.87205 692.15438 370.87205 709.4263V802.1125C370.87205 820.79037 383.05613 830.1292 407.42433 830.1292 429.2486 830.1292 440.16075 821.62716 440.16075 804.6229V778.51419Z" fill="#ffffff"/>
<path transform="matrix(1,0,0,-1,0,830.1292)" d="M525.21517 684.6229H493.5833C490.1691 688.7066 488.46199 700.2882 488.46199 719.36776V719.56857L488.6628 728.2045C488.86366 740.1878 488.96409 746.31338 488.96409 746.5811 488.96409 751.46817 485.68376 753.9117 479.12309 753.9117V684.8238H447.49128V828.8238H486.55406C495.4578 828.8238 503.20677 826.7819 509.8009 822.69827 516.395 818.61459 519.69216 812.15438 519.69216 803.3175V786.04556C519.69216 774.8656 513.1649 767.3008 500.1105 763.351 513.2319 760.2715 519.79257 752.33847 519.79257 739.5518L519.2904 723.78616C519.2904 700.75686 521.2653 687.70248 525.21517 684.6229ZM488.86366 779.0367V802.7966C488.86366 807.8301 485.6168 810.3468 479.12309 810.3468V771.38449C485.6168 771.38449 488.86366 773.9352 488.86366 779.0367Z" fill="#ffffff"/>
<path transform="matrix(1,0,0,-1,0,830.1292)" d="M783.03976 190.73067C783.03976 162.23122 777.1979 144.49234 759.78976 122.040668 755.2143 116.1396 749.75857 110.198169 744.03976 104.790668 739.89328 100.86987 712.7808 80.16917 707.03976 76.540668 655.62527 44.045454 587.27218 23.333065 526.03976 12.290665 515.3475 10.362465 454.98777 2.890398 443.23976 2.040665 430.62245 1.128055 374.7675-.255006 362.46974 .040665 307.41566 1.364313 255.46872 7.517044 202.78974 20.540665 193.26067 22.8965 144.26612 38.241968 136.53974 41.290666 106.75286 53.04408 78.85622 67.89585 54.20303 87.025959 49.517625 90.66169 27.130116 111.99366 24.539742 115.290668 19.565697 121.62159 8.034108 138.43593 5.789741 147.54067 4.987445 150.79534 4.590203 154.35698 3.4427 156.32811 3.085266 156.9421 2.651956 157.43093 2.289741 158.04067-.141903 162.13399-.065098 184.62847 .039741 187.14067 2.641464 249.48432 74.12385 295.98844 129.03974 318.79069 251.3891 369.59269 409.39714 376.3508 537.03976 352.79069 606.1265 340.0387 689.8921 314.21083 742.28976 265.54069 761.9842 247.24724 776.58139 226.36408 781.78976 200.04067 782.4543 196.68195 783.03976 193.07906 783.03976 190.73067ZM254.53974 340.79069C218.18999 333.73649 188.38808 326.8117 158.53974 315.79069 149.18018 312.33479 112.93795 296.4153 105.03974 292.29069 99.12687 289.20283 67.44478 268.83576 63.03974 265.29069 58.01257 261.24488 40.551076 244.2871 37.03974 240.04067 9.940626 207.2684 4.94666 167.53516 28.789742 131.54067 71.72643 66.72168 181.7092 33.59833 257.03974 21.290665 376.14128 1.831598 532.8965 11.776292 645.53976 57.540666 680.77017 71.853969 721.5257 94.72567 745.78976 122.540668 781.85769 163.88698 780.7625 210.16655 742.03976 250.79067 685.6426 309.95704 568.08029 337.70274 495.53974 346.54069 422.91136 355.3893 331.52684 355.73109 254.53974 340.79069ZM372.78254 309.0071 378.79698 264.82423C379.01548 263.21903 379.01887 262.8776 378.83088 261.40998 378.44349 258.3855 378.08448 257.44523 375.37974 257.04069 372.2368 256.57057 370.37333 257.10487 368.03974 258.79069 364.53776 261.32054 355.44166 273.97236 348.53974 281.54069 346.37559 283.9138 332.19493 294.5493 328.53974 296.54069 296.77986 313.8438 257.67204 314.9705 229.53974 291.54069 201.91753 268.53565 198.36853 229.32482 219.28974 198.04067 237.1957 171.26534 265.27018 160.8019 298.06974 162.04067 313.08387 162.60771 333.62944 167.87947 347.03974 176.79067 355.91468 182.68808 371.63246 193.72589 373.19975 194.04067 376.85035 194.77385 382.12986 193.12633 381.03974 188.20067 379.85893 182.8652 368.69328 172.77317 366.53974 171.04067 348.4915 156.52101 327.0722 149.07807 304.53974 145.29067 264.95246 138.63658 209.03878 143.37487 181.28974 176.04067 156.07599 205.72197 156.67018 241.95519 177.28974 274.04069 207.6734 321.31977 275.97383 329.5191 327.03974 314.79069 339.42616 311.21818 355.9468 305.565 355.9468 305.565 355.9468 305.565 361.05799 311.9556 363.53974 313.79069 365.92716 315.55598 371.0248 314.94267 372.28288 311.49473 372.51405 310.86109 372.56404 310.6123 372.78254 309.0071ZM548.5367 232.49993 599.43826 166.71428C600.42959 165.43303 600.67117 165.20256 601.85379 164.4096 602.731 163.82135 603.63449 163.32543 604.69979 163.04067 607.8154 162.20781 617.4465 164.71082 621.87979 164.04067 624.2405 163.68379 626.829 161.18038 626.03976 158.64067 623.7311 151.2116 607.20706 148.1162 601.53976 147.29067 584.52096 144.81159 574.02468 146.49446 560.5015 156.23749 559.1859 157.18535 558.9303 157.43358 557.9455 158.71988L511.13398 219.86145C510.14918 221.14775 509.88337 221.38042 508.47605 222.18822 502.85017 225.4175 500.83943 225.68209 493.72975 226.04067 490.1754 226.21993 476.7936 227.69362 473.47914 223.29389 473.08369 222.76898 473.03907 222.53066 473.03309 220.91062 472.96867 203.45328 472.67756 171.02529 473.28974 168.54067 474.4172 163.96477 478.13383 159.61638 484.03974 157.79067 492.74443 155.09976 503.92485 156.28266 505.03974 150.14067 505.25028 148.98087 504.77778 147.60726 503.06779 146.98332 502.59257 146.80994 502.35978 146.78829 500.7399 146.76679L410.1396 145.56455C408.5197 145.54306 408.22456 145.56829 407.18778 145.81679 403.87498 146.61081 402.49308 149.35379 403.03974 151.21067 404.2398 155.28688 409.38905 154.74733 416.53974 157.54067 423.73399 160.35102 427.70213 165.19574 429.20045 173.01912 429.5058 174.61351 429.54054 174.97066 429.54756 176.59066L430.03193 288.09068C430.03898 289.71067 430.01655 290.06965 429.8077 291.6803 428.81407 299.34394 424.13624 303.5889 417.03974 305.79069 409.95106 307.99003 396.15199 307.29777 394.53974 313.70066 393.94093 316.0788 394.49839 317.7914 397.2664 318.72566 398.1064 319.00917 398.37974 319.03868 399.99964 319.0206L530.98989 317.56074C532.60977 317.54267 532.96707 317.50923 534.5628 317.22624 557.54269 313.1509 574.7285 306.5495 583.78976 286.04069 590.6332 270.55149 585.3653 253.08614 571.8779 244.43784 563.8099 239.26445 548.5367 232.49993 548.5367 232.49993ZM473.03974 292.23066C472.76618 279.36955 472.43974 242.16468 473.03974 240.77454 473.31288 240.14171 485.94679 238.78322 489.16474 239.04067 507.5306 240.50997 531.07369 238.88501 540.78976 251.04067 547.66256 259.6391 545.01699 280.06806 536.78976 290.04069 527.09707 301.78965 514.51846 305.33537 500.38975 306.54069 490.42289 307.39094 477.17674 306.95613 474.28974 299.54069 473.4315 297.33619 473.07917 294.08427 473.03974 292.23066ZM113.72776 153.24367C113.33545 151.42223 104.75423 137.82898 101.70974 136.54067 99.41475 135.5695 97.19013 137.83095 96.89973 140.24407 96.62518 142.52535 98.157878 145.6036 98.53974 148.54067 99.49421 155.88176 93.30603 168.68817 85.54974 170.04067 78.28577 171.30731 69.149257 165.63585 65.03974 160.54067 58.333688 152.22615 54.672365 139.03453 58.28974 131.04067 61.074 124.88787 66.57283 119.77393 72.52974 119.040668 77.05449 118.48369 85.76805 121.19735 87.03974 117.71066 87.87606 115.41767 84.117458 113.7002 81.37974 113.040668 68.29064 109.88738 54.989927 117.05257 47.46224 126.647418 42.192907 133.36374 40.96419 143.62943 43.53974 152.04067 48.499086 168.2369 62.90326 179.15972 80.88974 177.54067 89.519969 176.76381 99.342548 170.16397 103.78974 162.04067 104.65355 160.46282 105.86324 155.37268 107.53974 154.79067 109.5185 154.10372 113.94106 154.234 113.72776 153.24367ZM708.3397 155.54067C705.12899 156.47298 700.1884 159.54225 696.03976 160.79067 683.0203 164.70845 670.5821 155.21382 670.53976 142.29067 670.4964 129.06099 685.12997 113.097248 698.53976 113.040668 705.4432 113.011539 712.1638 117.83164 715.53976 123.290668 716.4509 124.764148 717.3053 126.2367 717.78976 128.04067 718.3397 130.08873 718.5182 139.78697 722.2097 138.04067 724.8167 136.80742 724.43948 131.17783 724.03976 128.86067 721.1576 112.15289 702.221 97.11811 684.53976 103.290668 666.69717 109.51955 657.9971 132.32363 664.28976 149.04067 665.93399 153.40862 672.22958 161.7103 677.53976 164.04067 683.19839 166.52393 694.75399 168.0645 695.2624 169.27017 696.02609 171.08118 695.7324 173.1145 697.2867 173.37703 699.20516 173.70107 709.2387 159.0824 709.53976 158.14067 709.6587 157.76847 709.72879 157.4073 709.53976 156.87067 709.3238 156.2577 708.76986 155.41579 708.3397 155.54067ZM163.03974 116.89066C164.66202 103.9882 155.38704 90.0399 147.53974 84.040668 135.47106 74.81418 121.21014 76.67895 107.25597 86.07849 95.67299 93.8808 93.41246 108.33505 99.28974 122.040668 108.34984 143.16847 131.14083 151.34395 150.53974 137.79067 157.05193 133.24085 161.91332 125.84952 163.03974 116.89066ZM112.03974 115.290668C107.59506 102.96026 109.652439 89.14672 121.53974 85.290668 137.74282 80.03464 148.71665 101.690547 150.03974 116.44067 150.8754 125.75673 143.6996 139.9251 132.23975 138.54067 121.24848 137.21285 115.16107 123.949848 112.03974 115.290668ZM626.6976 125.525188 642.1319 86.21614C642.72396 84.70821 642.8514 84.46615 643.40628 83.79551 644.9873 81.88457 646.02267 81.99596 649.03976 83.290668 654.10537 85.46443 663.012 90.515727 664.03976 97.540668 664.51388 100.781528 663.9522 102.371288 666.3397 103.040668 667.526 103.37325 667.9945 102.61745 668.78976 100.540668 670.51828 96.02663 670.11416 88.18986 665.13076 84.17059 664.14889 83.378658 663.87399 83.22053 662.382 82.58931L633.1975 70.24202C631.7055 69.6108 631.48416 69.53431 630.98367 69.47711 629.1823 69.27124 627.87356 70.71419 628.53976 72.14066 628.88168 72.87272 629.84268 73.74227 630.6287 74.66879 631.6794 75.907199 632.25857 77.025989 632.1082 78.34126 632.0466 78.88072 631.97427 79.10833 631.3848 80.61729L616.4447 118.864048C615.8552 120.373 615.7234 120.62415 615.1261 121.37554 614.08676 122.68319 612.54379 123.45743 611.6398 123.540668 607.7825 123.89583 603.5146 121.61564 603.9697 125.597949 604.0327 126.14939 604.2045 126.2831 605.68759 126.935009L625.8919 135.81633C627.37496 136.46823 627.57498 136.52782 627.8918 136.41222 629.3939 135.86415 629.87277 133.9868 629.53976 133.37067 628.9532 132.2855 626.59518 131.10404 626.03976 129.71067 625.82369 129.16864 625.88046 128.59456 625.9442 128.0365 626.0302 127.28425 626.1055 127.03312 626.6976 125.525188ZM217.53974 48.540666H217.03974V48.040666H213.43975L193.25989 54.260484C191.71176 54.737649 191.50244 54.821825 191.16678 55.102258 189.92624 56.13868 190.42639 57.31653 191.53974 58.040666 192.93036 58.945146 195.88822 59.00199 197.03974 59.790666 198.88132 61.051939 198.39537 71.68256 197.87308 73.415668 197.53893 74.524478 197.00858 75.12691 196.03974 75.790668 194.44837 76.88094 181.21118 80.750278 179.78974 80.540668 177.68146 80.229778 175.90264 78.55917 173.53974 75.040668 171.87342 72.55939 169.55951 68.632488 169.55951 68.632488 169.55951 68.632488 176.37868 63.240686 177.53974 61.290666 177.8541 60.762708 177.2626 60.206796 176.20975 60.040666 175.63909 59.950624 174.93355 59.858518 174.29546 59.931444 173.43532 60.029745 173.16672 60.0903 171.60953 60.537038L156.76995 64.7943C155.21277 65.24103 155.00234 65.32282 154.66564 65.61225 152.57216 67.41183 155.14519 69.07151 158.35393 70.19854 159.87116 70.73145 160.15518 70.92878 161.19408 72.171848 174.47156 88.05845 200.43192 119.36254 201.36974 119.540668 203.71492 119.9861 205.2495 118.25147 205.78974 115.040668 207.5039 104.85303 210.0061 81.90016 210.06287 75.84302 210.10387 71.46793 212.56795 54.819395 213.28974 54.040666 213.59195 53.71461 217.41819 51.541788 217.53974 49.290666 217.55817 48.94942 217.53974 48.540666 217.53974 48.540666ZM578.0185 108.2055 590.5656 62.72848C590.5656 62.72848 596.8368 64.77136 600.53976 66.290668 604.5983 67.95589 609.6334 71.21888 611.28976 75.040668 612.23947 77.23199 612.8497 82.91895 615.23977 82.040668 619.3876 80.516468 617.40798 71.07254 615.53976 67.790668 614.19778 65.43329 613.1392 64.49137 611.53976 63.540666 609.35018 62.239187 577.0559 52.302499 575.78976 52.540666 574.58108 52.76802 572.4344 53.996225 573.53976 55.710668 574.1557 56.666017 575.9786 57.44072 576.78976 58.540666 577.1018 58.963838 577.8103 61.27316 577.6425 62.741567 577.55 63.550756 577.49349 63.814615 577.0769 65.380138L567.2526 102.30119C566.836 103.866718 566.73416 104.18536 566.23379 105.487659 564.67977 109.5324 564.2075 108.712848 556.823 109.78239 555.2181 110.01484 555.0334 110.096279 554.9762 110.59677 554.8667 111.55453 554.9867 111.88545 555.66567 112.469089 556.0023 112.75851 556.21188 112.84346 557.76058 113.31864L576.3189 119.01269C577.8677 119.48787 578.08969 119.54637 578.53927 119.59775 580.7498 119.85039 582.14987 117.61775 582.03976 117.290668 581.6718 116.19795 578.3047 115.02568 577.53976 113.21066 577.25247 112.52897 577.3322 111.75661 577.4153 111.02957 577.5273 110.04955 577.5876 109.76715 578.0185 108.2055ZM291.38023 87.07665C291.0224 84.69011 290.08769 84.23918 288.03974 84.540668 284.31459 85.08905 285.22816 91.737079 284.3957 93.74818 284.114 94.42874 277.11408 96.040569 274.43974 96.040668 272.19828 96.04075 269.4937 96.040668 269.4937 96.040668L259.829 48.65612 268.10917 42.33311C269.3967 41.34991 269.54316 41.210695 269.574 40.940965 269.66035 40.185419 269.48097 39.999219 268.1485 39.39136 267.4566 39.075735 267.2018 39.06783 265.60035 39.3123L241.31912 43.019029C239.71768 43.2635 239.4313 43.347616 238.45536 43.86016 236.59564 44.836847 236.05428 45.620977 236.53974 46.710668 236.73361 47.145833 237.03244 47.533208 237.53974 47.790666 239.0882 48.576517 242.57898 48.151914 244.53974 48.790666 246.07613 49.29117 246.68492 50.44938 247.28974 52.040666 249.47191 57.781934 256.59034 98.49049 256.59034 98.49049 256.59034 98.49049 254.0959 99.26488 252.03974 99.790668 246.71245 101.15293 242.58032 101.22179 240.53974 98.790668 236.90053 94.45494 237.16075 90.72344 233.13974 91.540668 230.79892 92.01641 230.54082 93.41777 231.03974 95.38067 232.07892 99.46912 235.84401 109.385128 235.84401 109.385128L292.1291 99.42078 291.63368 89.93821C291.54914 88.32042 291.5238 88.03426 291.38023 87.07665ZM181.42955 86.93401C181.42955 86.93401 189.48145 83.42066 194.19974 83.040668 195.70438 82.91949 197.03974 83.040668 197.03974 83.040668 197.03974 83.040668 197.07546 84.5567 197.03974 85.84067 196.90668 90.62402 195.78217 92.18647 195.2799 96.98838 195.02141 99.45985 194.92774 102.789447 194.92774 102.789447 194.92774 102.789447 192.44335 99.302539 190.83364 96.91995 188.72495 93.79879 188.11731 92.57272 185.53974 90.290668 183.88875 88.82896 181.42955 86.93401 181.42955 86.93401ZM480.45878 82.36663 503.1207 73.2147C504.62284 72.60807 504.89924 72.468929 505.88468 71.82328 511.976 67.83233 512.22799 57.29481 511.2207 52.091169 508.9229 40.220605 501.17988 36.925909 489.63975 36.540666 486.5787 36.43848 477.50358 37.938505 476.72218 38.6758 475.1577 40.151975 470.47743 53.42019 470.53974 55.790666 470.5507 56.206834 470.6094 56.577615 471.03974 57.040666 471.62678 57.672346 472.90534 58.475736 472.90534 58.475736 472.90534 58.475736 479.31559 48.47441 483.03974 45.290666 485.54795 43.14642 490.37196 41.4682 493.54975 42.040666 499.85264 43.176099 502.8713 46.007589 504.03974 51.530668 505.48603 58.367177 501.15675 60.95421 492.78974 63.540666 478.73417 67.88562 470.29704 68.665637 469.03974 81.19067 468.0123 91.42602 472.49787 97.84293 482.03974 100.790668 483.7525 101.31978 485.39433 101.68502 487.03974 101.540668 489.66065 101.31074 492.29075 99.78791 495.53974 100.040668 498.24635 100.25123 502.67063 102.29425 504.11564 100.72924 504.27235 100.559528 504.33534 100.36644 504.74555 98.79844 505.82316 94.67931 506.8775 89.81085 507.53974 86.34067 507.91746 84.36141 507.7678 82.632228 505.28974 82.540668 502.78233 82.44802 501.83583 86.57643 499.53974 89.790668 495.44236 95.52657 488.92936 97.62995 483.03974 95.540668 480.02403 94.470859 476.3804 90.72223 477.03974 87.040668 477.1916 86.19278 477.58897 85.161838 478.0697 84.3126 478.71775 83.16786 478.95664 82.97326 480.45878 82.36663ZM323.08808 94.67405C323.08808 94.67405 319.23896 93.272197 316.28974 90.540668 315.60353 89.90509 309.60398 43.0223 310.03974 41.700666 310.38005 40.668607 310.93629 39.332746 312.53974 38.290666 314.74299 36.85879 320.59309 35.377843 318.03974 33.790666 317.5878 33.509725 316.75334 33.266767 316.0673 33.176244 315.1425 33.054224 314.86097 33.061586 313.25196 33.249876L287.95008 36.21073C287.95008 36.21073 293.839 39.35537 295.78974 41.540666 296.49668 42.332609 296.68644 42.998559 296.92799 43.816137 297.25358 44.918214 297.31333 45.219114 297.52565 46.82514L303.35466 90.92288C303.35466 90.92288 295.66127 95.1739 294.78974 97.040668 294.20939 98.28381 294.53974 99.540668 294.53974 99.540668L321.03974 96.790668 323.08808 94.67405ZM337.53974 95.540668C337.53974 95.540668 337.4426 95.22321 337.53974 95.040668 337.82429 94.50589 339.77595 95.128818 341.3042 95.18243 341.83967 95.2012 342.32316 95.1501 342.8102 95.006198 343.4668 94.81222 343.65507 94.65245 344.69285 93.408519L380.03974 51.040666 381.45948 82.84245C381.5317 84.460849 381.52009 84.69014 381.34327 85.13541 380.2347 87.92695 374.7402 90.13005 373.03974 90.790668 372.68913 90.92688 372.44285 91.02604 372.28974 91.540668 372.05867 92.31741 372.03974 94.040668 372.03974 94.040668L392.04023 93.58194C393.6598 93.54479 393.9032 93.4872 394.47434 93.00596 395.77027 91.91406 395.789 91.14307 395.53974 90.84067 394.64753 89.75824 391.06355 88.23694 389.28974 86.540668 388.50019 85.78561 387.55775 81.692768 387.53974 78.94067 387.45237 65.584598 385.03974 30.040665 385.03974 30.040665H380.86976L339.59074 80.41931 338.5886 43.500005C338.54463 41.8806 338.57124 41.60733 338.85478 40.76731 339.41487 39.107789 341.21809 37.25 342.03974 36.790666 343.3091 36.08104 350.00453 34.24559 348.53974 32.340665 348.28105 32.004243 347.66178 31.62551 347.1485 31.391362 346.4566 31.075736 346.19993 31.048836 344.5816 31.122363L326.16789 31.958968C324.54957 32.032495 324.3188 32.09388 323.86027 32.5728 322.67323 33.81259 322.58219 34.518518 324.53974 35.790666 326.80134 37.260385 331.62593 39.688066 331.62593 39.688066L333.93656 79.92363C334.02943 81.54096 334.01527 81.899509 333.7948 83.50911 333.31755 86.99378 332.65629 88.723758 330.53974 89.790668 326.79469 91.678478 324.27574 92.381587 325.03974 94.71066 325.23808 95.31524 325.57929 95.82324 326.86976 96.040668 329.7841 96.53169 337.53974 95.540668 337.53974 95.540668ZM457.08927 90.41135 457.53974 74.040668H455.42536C454.4753 74.040668 454.2805 74.19709 453.47715 75.60491 447.6161 85.8762 445.36845 89.877269 434.88975 91.040668 416.75865 93.05367 409.92707 77.342998 411.53974 60.190668 413.11845 43.39957 423.34886 31.882529 440.03974 38.290666 444.94853 40.175294 446.91905 43.832883 446.53974 49.240667 446.31303 52.473287 445.69349 55.86503 443.53974 57.040666 440.60307 58.643678 432.90415 58.450475 436.47364 61.765 436.98313 62.2381 437.21928 62.30349 438.83518 62.41891L459.74433 63.91242C461.3602 64.02784 461.59257 64.0214 462.06779 63.848 463.63215 63.27722 464.35243 61.94933 464.03974 61.340665 463.48347 60.25786 461.02409 59.093687 459.78974 58.040666 458.9359 57.312257 458.66825 56.63703 458.53974 55.380666 458.13935 51.465848 459.0901 41.90851 459.0901 41.90851 459.0901 41.90851 453.50816 38.37772 449.53974 36.290666 426.7583 24.30955 402.45173 31.904639 399.03974 56.530668 398.03715 63.76704 400.10496 75.414539 404.28974 82.040668 412.61936 95.22967 430.50358 99.94069 444.78974 94.040668 446.89378 93.17173 450.34956 91.226459 451.70976 92.040668 452.9969 92.81115 453.21476 94.97291 455.20976 94.040668 455.69636 93.81327 456.13963 93.34307 456.5 92.8897 456.98579 92.278568 457.04469 92.03073 457.08927 90.41135ZM538.03976 50.140665C539.0009 44.0373 533.0155 34.716356 529.53976 32.290666 528.1298 31.306675 526.57327 30.627232 525.36978 31.040665 522.09597 32.165327 525.522 35.03213 527.28976 37.540666 529.3991 40.533937 529.81307 43.74273 527.78976 46.040666 524.4972 49.780199 521.0126 49.303804 521.88888 52.65286 522.30496 54.242906 526.31326 59.901334 528.6398 60.540666 530.3901 61.021665 533.01028 59.800096 534.28976 58.540666 536.03927 56.818574 537.6006 52.92935 538.03976 50.140665Z" fill-rule="evenodd"/>
</g>
</svg>
